<svg id="Layer_1" enable-background="new 0 0 26 26" viewBox="0 0 26 26" xmlns="http://www.w3.org/2000/svg" fill="white"><path d="m9 12h-6c-1.7 0-3-1.3-3-3v-6c0-1.7 1.3-3 3-3h6c1.7 0 3 1.3 3 3v6c0 1.7-1.3 3-3 3zm-6-10c-.6 0-1 .4-1 1v6c0 .6.4 1 1 1h6c.6 0 1-.4 1-1v-6c0-.6-.4-1-1-1z"/><path d="m23 12h-6c-1.7 0-3-1.3-3-3v-6c0-1.7 1.3-3 3-3h6c1.7 0 3 1.3 3 3v6c0 1.7-1.3 3-3 3zm-6-10c-.6 0-1 .4-1 1v6c0 .6.4 1 1 1h6c.6 0 1-.4 1-1v-6c0-.6-.4-1-1-1z"/><path d="m9 26h-6c-1.7 0-3-1.3-3-3v-6c0-1.7 1.3-3 3-3h6c1.7 0 3 1.3 3 3v6c0 1.7-1.3 3-3 3zm-6-10c-.6 0-1 .4-1 1v6c0 .6.4 1 1 1h6c.6 0 1-.4 1-1v-6c0-.6-.4-1-1-1z"/><path d="m23 26h-6c-1.7 0-3-1.3-3-3v-6c0-1.7 1.3-3 3-3h6c1.7 0 3 1.3 3 3v6c0 1.7-1.3 3-3 3zm-6-10c-.6 0-1 .4-1 1v6c0 .6.4 1 1 1h6c.6 0 1-.4 1-1v-6c0-.6-.4-1-1-1z"/></svg>