<?xml version="1.0" encoding="UTF-8"?>
<svg xmlns="http://www.w3.org/2000/svg" xmlns:xlink="http://www.w3.org/1999/xlink" width="272pt" height="232pt" viewBox="0 0 272 232" version="1.1">
<g id="surface1">
<path style=" stroke:none;fill-rule:nonzero;fill:rgb(0%,54.901961%,58.431373%);fill-opacity:1;" d="M 148.398438 0 C 149.238281 13.863281 143.367188 18.273438 134.984375 19.117188 C 127.648438 19.117188 123.246094 21.003906 119.683594 24.996094 L 79.230469 94.734375 C 101.65625 95.785156 123.457031 103.980469 142.109375 130.867188 C 152.589844 145.78125 170.828125 158.59375 205.203125 165.105469 C 179.839844 170.777344 161.8125 160.0625 132.050781 150.613281 C 108.15625 143.257812 71.476562 140.109375 46.53125 151.660156 L 0 231.90625 C 31.859375 205.4375 89.082031 198.503906 129.746094 214.050781 C 176.695312 231.90625 222.179688 237.15625 272.066406 211.527344 L 237.898438 153.761719 C 232.03125 158.59375 226.160156 161.113281 220.082031 161.953125 L 226.582031 115.742188 C 205.832031 118.054688 187.804688 113.011719 174.390625 97.675781 C 154.6875 74.570312 135.613281 57.347656 116.75 53.355469 C 121.570312 43.480469 131.421875 44.953125 143.578125 49.152344 C 152.382812 51.882812 167.890625 48.523438 171.246094 38.230469 L 148.820312 0.210938 Z M 148.398438 0 "/>
<path style=" stroke:none;fill-rule:nonzero;fill:rgb(98.823529%,29.803922%,0.784314%);fill-opacity:1;" d="M 86.777344 98.308594 C 99.140625 98.308594 108.992188 108.179688 109.203125 120.574219 C 109.203125 132.757812 99.351562 142.839844 86.984375 142.839844 C 74.828125 142.839844 64.765625 132.96875 64.765625 120.785156 C 64.765625 108.390625 74.617188 98.515625 86.777344 98.308594 Z M 86.777344 98.308594 "/>
</g>
</svg>
