<svg id="Layer_1" enable-background="new 0 0 453.5 453.6" height="512" viewBox="-50 -50 550 550" width="512" xmlns="http://www.w3.org/2000/svg"><g><path d="m322.1 330.8c-99.6 0-180.4-80.8-180.4-180.4 0-55.9 25.4-105.9 65.3-138.9-107.9 12-191.7 103.5-191.7 214.6 0 119.3 96.7 216.1 216.1 216.1 97.7 0 180.2-64.9 206.9-153.9-31.4 26.5-72 42.5-116.2 42.5z" fill="#ffcc15"/><path d="m231.3 453.6c-125.4 0-227.5-102-227.5-227.5.1-115.9 86.9-213.1 201.9-226 5-.6 9.8 2.2 11.8 6.9 2 4.6.7 10-3.2 13.2-38.9 32.3-61.2 79.7-61.2 130.2 0 93.2 75.8 169 169 169 39.8 0 78.5-14.1 108.9-39.8 3.9-3.3 9.4-3.6 13.6-.8s6.1 8 4.7 12.8c-13.8 45.9-42.5 87.1-80.9 116.1-39.8 30-87.2 45.9-137.1 45.9zm-58.5-423.7c-85.4 25.3-146.1 104.2-146.1 196.2 0 112.9 91.8 204.7 204.7 204.7 77.4 0 148-44.6 182.5-112-28 15.2-59.5 23.4-91.7 23.4-105.8 0-191.8-86-191.8-191.8-.1-44.4 15-86.7 42.4-120.5z" fill="#413f4b"/></g></svg>