<svg fill="none" height="512" viewBox="0 0 64 64" width="512" xmlns="http://www.w3.org/2000/svg"><path d="m32 16c-8.8366 0-16 7.1634-16 16s7.1634 16 16 16 16-7.1634 16-16-7.1634-16-16-16z" fill="#ffcc15"/><g clip-rule="evenodd" fill-rule="evenodd"><path d="m32 6c1.1046 0 2 .89543 2 2v2c0 1.1046-.8954 2-2 2s-2-.8954-2-2v-2c0-1.10457.8954-2 2-2z" fill="#ff8a00"/><path d="m32 52c1.1046 0 2 .8954 2 2v2c0 1.1046-.8954 2-2 2s-2-.8954-2-2v-2c0-1.1046.8954-2 2-2z" fill="#ff8a00"/><path d="m50.3847 13.6152c.781.7811.781 2.0474 0 2.8284l-1.4142 1.4142c-.7811.7811-2.0474.7811-2.8285 0-.781-.781-.781-2.0473 0-2.8284l1.4142-1.4142c.7811-.781 2.0474-.781 2.8285 0z" fill="#ff8a00"/><path d="m17.8578 46.1421c.7811.7811.7811 2.0474 0 2.8284l-1.4142 1.4143c-.781.781-2.0474.781-2.8284 0-.7811-.7811-.7811-2.0474 0-2.8285l1.4142-1.4142c.781-.781 2.0474-.781 2.8284 0z" fill="#ff8a00"/><path d="m50.3849 50.3848c-.7811.781-2.0474.781-2.8285 0l-1.4142-1.4142c-.781-.7811-.781-2.0474 0-2.8284.7811-.7811 2.0474-.7811 2.8284 0l1.4143 1.4142c.781.781.781 2.0473 0 2.8284z" fill="#ff8a00"/><path d="m17.8578 17.8578c-.7811.7811-2.0474.7811-2.8285 0l-1.4142-1.4142c-.781-.781-.781-2.0474 0-2.8284.7811-.7811 2.0474-.7811 2.8284 0l1.4143 1.4142c.781.781.781 2.0474 0 2.8284z" fill="#ff8a00"/><path d="m58 32c0 1.1046-.8954 2-2 2h-2c-1.1046 0-2-.8954-2-2s.8954-2 2-2h2c1.1046 0 2 .8954 2 2z" fill="#ff8a00"/><path d="m12 32c0 1.1046-.8954 2-2 2h-2c-1.10457 0-2-.8954-2-2s.89543-2 2-2h2c1.1046 0 2 .8954 2 2z" fill="#ff8a00"/><path d="m32 6c1.1046 0 2 .89543 2 2v2c0 1.1046-.8954 2-2 2s-2-.8954-2-2v-2c0-1.10457.8954-2 2-2zm0 14c-6.6274 0-12 5.3726-12 12s5.3726 12 12 12 12-5.3726 12-12-5.3726-12-12-12zm-16 12c0-8.8366 7.1634-16 16-16s16 7.1634 16 16-7.1634 16-16 16-16-7.1634-16-16zm18 22c0-1.1046-.8954-2-2-2s-2 .8954-2 2v2c0 1.1046.8954 2 2 2s2-.8954 2-2zm16.3848-37.5564-1.4142 1.4142c-.7811.7811-2.0474.7811-2.8285 0-.781-.781-.781-2.0473 0-2.8284l1.4143-1.4142c.781-.781 2.0473-.781 2.8284 0 .781.7811.781 2.0474 0 2.8284zm-33.9412 33.9412 1.4143-1.4142c.781-.7811.781-2.0474 0-2.8285-.7811-.781-2.0474-.781-2.8285 0l-1.4142 1.4142c-.781.7811-.781 2.0474 0 2.8285.7811.781 2.0474.781 2.8284 0zm31.1128 0-1.4143-1.4142c-.781-.7811-.781-2.0474 0-2.8284.7811-.7811 2.0474-.7811 2.8285 0l1.4142 1.4142c.781.781.781 2.0473 0 2.8284-.7811.781-2.0474.781-2.8284 0zm-32.527-32.527c.7811.7811 2.0474.7811 2.8285 0 .781-.781.781-2.0474 0-2.8284l-1.4143-1.4142c-.781-.7811-2.0473-.7811-2.8284 0-.781.781-.781 2.0474 0 2.8284zm42.9706 14.1422c0 1.1046-.8954 2-2 2h-2c-1.1046 0-2-.8954-2-2s.8954-2 2-2h2c1.1046 0 2 .8954 2 2zm-48 2c1.1046 0 2-.8954 2-2s-.8954-2-2-2h-2c-1.10457 0-2 .8954-2 2s.89543 2 2 2z" fill="#000"/></g></svg>